<?xml version="1.0" standalone="no"?>
<!DOCTYPE svg PUBLIC "-//W3C//DTD SVG 20010904//EN"
 "http://www.w3.org/TR/2001/REC-SVG-20010904/DTD/svg10.dtd">
<svg version="1.0" xmlns="http://www.w3.org/2000/svg"
 width="650.000000pt" height="520.000000pt" viewBox="0 0 650.000000 520.000000"
 preserveAspectRatio="xMidYMid meet">
<metadata>
Created by potrace 1.16, written by Peter Selinger 2001-2019
</metadata>
<g transform="translate(0.000000,520.000000) scale(0.100000,-0.100000)"
fill="#000000" stroke="none">
<path d="M0 2600 l0 -2600 3250 0 3250 0 0 2600 0 2600 -3250 0 -3250 0 0
-2600z m2850 119 l0 -600 48 7 c267 38 465 291 424 541 -25 151 -138 298 -280
364 l-72 34 0 122 c0 68 4 123 9 123 5 0 40 -9 77 -21 137 -42 251 -116 345
-226 23 -26 46 -48 50 -48 4 0 26 23 48 52 104 130 302 233 482 249 l69 7 0
-91 0 -92 48 37 c98 75 286 143 397 143 l35 0 0 -720 0 -720 -125 0 -125 0 -2
562 -3 562 -66 -62 c-71 -66 -122 -149 -145 -236 -11 -39 -14 -143 -14 -438
l0 -388 -120 0 -120 0 0 560 c0 402 -3 560 -11 560 -21 0 -147 -136 -173 -187
-36 -71 -56 -155 -56 -231 0 -93 -26 -195 -77 -302 -39 -81 -59 -107 -137
-185 -98 -98 -174 -145 -301 -186 -59 -19 -99 -23 -257 -27 l-188 -4 0 597 0
596 -22 -6 c-13 -3 -57 -23 -98 -42 -123 -60 -223 -178 -258 -305 l-10 -38
134 0 134 0 0 -120 0 -120 -135 0 -135 0 0 -280 0 -280 -126 0 -125 0 4 423
c4 473 4 471 80 627 54 111 185 247 292 302 132 68 210 85 383 87 l122 1 0
-601z m720 -669 l0 -170 -120 0 -120 0 0 24 c0 17 15 37 50 66 56 46 132 144
163 208 12 23 22 42 24 42 2 0 3 -76 3 -170z"/>
</g>
</svg>
